<svg xmlns="http://www.w3.org/2000/svg" viewBox="0 0 20 20">
	<path d="M11.381 2.252a4.111 4.111 0 015.908 5.718l-3.088 3.19a.101.101 0 01-.173-.069 9.284 9.284 0 00-.03-.634c-.017-.2-.047-.435-.083-.685a2.071 2.071 0 01.54-1.738l1.397-1.455a2.111 2.111 0 00-3.034-2.936l-2.58 2.689c.784.534 1.8.786 2.262 1.948.463 1.162.456 1.72.5 2.22l.026.53c-.307 1.043-.951 2.134-1.59 2.794l-3.37 3.482a4.111 4.111 0 01-5.909-5.718l3.141-3.246a.101.101 0 01.174.07c.004.218.013.436.03.631.03.355.1.764.176 1.146.066.332-.029.678-.265.92l-1.819 1.87a2.111 2.111 0 103.034 2.936l2.903-2.983c.261-.21.56-.495.86-.87l.008-.011c.184-.23.352-.439.484-.632.096-.14.184-.287.25-.443l.017-.001c.023-.07.042-.139.058-.21.047-.166.062-.33.053-.493a2.117 2.117 0 00-.643-1.492 2.101 2.101 0 00-1.076-.558 2.122 2.122 0 00-1.017.058c-.066.705.005 1.207.129 1.56.158.447.42.711.735.881l.012.006c.263.14.395.477.208.71a4.435 4.435 0 01-.93.884.448.448 0 01-.5.005 3.522 3.522 0 01-1.41-1.818c-.113-.496-.231-1.092-.271-1.551a12.62 12.62 0 01-.024-1.238l.01-.355.005-.108L8.01 5.734l3.37-3.482z"></path>
</svg>