<svg height="512" viewBox="0 0 58 58" width="512" xmlns="http://www.w3.org/2000/svg"><g id="Page-1" fill="none" fill-rule="evenodd"><g id="003---Star" fill-rule="nonzero" transform="translate(-1 -1)"><path id="Shape" d="m31.109 53.85 16.74 4.982c3.251.968 6.151-2.412 4.951-5.766l-4.337-12.1c-.5969624-1.651617-.1937674-3.4992373 1.037-4.752l8.189-8.124c1.0811838-1.0797296 1.538274-2.6356216 1.2128925-4.1285721-.3253815-1.4929506-1.3884618-2.7175286-2.8208925-3.2494279l-15.138-4.9c-1.0994419-.3671987-1.9976456-1.173446-2.481-2.227l-4.783-10.168c-.6343623-1.46754272-2.0802201-2.41770977-3.679-2.41770977s-3.0446377.95016705-3.679 2.41770977l-4.785 10.171c-.4833544 1.053554-1.3815581 1.8598013-2.481 2.227l-15.138 4.9c-1.43125035.5323089-2.49332091 1.7562624-2.81862343 3.2482438-.32530253 1.4919814.13086607 3.0469626 1.21062343 4.1267562l8.191 8.124c1.2307674 1.2527627 1.6339624 3.100383 1.037 4.752l-4.337 12.1c-1.2 3.354 1.7 6.734 4.951 5.766l16.74-4.982c.7235576-.2159959 1.4944424-.2159959 2.218 0z" fill="#f0c419"/><path id="Shape" d="m49.5 36.21c-1.2274892 1.2577261-1.6310819 3.104939-1.04 4.76l4.34 12.1c1.2 3.35-1.7 6.73-4.95 5.76l-16.74-4.98c-.3598178-.1101094-.7337208-.1673739-1.11-.17v-52.68c1.5973471.00778739 3.0399649.95646537 3.68 2.42l4.78 10.17c.4890378 1.0533694 1.3892898 1.8596192 2.49 2.23l15.13 4.89c1.433534.531177 2.4977676 1.755974 2.823618 3.249624.3258505 1.4936499-.1315673 3.0504061-1.213618 4.130376z" fill="#f3d55b"/><circle id="Oval" cx="20" cy="25" fill="#35495e" r="4"/><circle id="Oval" cx="20" cy="24" fill="#3f5c6c" r="3"/><path id="Shape" d="m30 40c-3.0106272-.0301929-5.7208811-1.8311498-6.915-4.595-.2236753-.5053405.0046595-1.0963247.51-1.32s1.0963247.0046595 1.32.51c.8490409 2.0599187 2.856966 3.4041052 5.085 3.4041052s4.2359591-1.3441865 5.085-3.4041052c.1446926-.326898.452792-.5517717.8082403-.5899132.3554483-.0381416.7042443.1162435.915.405.2107557.2887564.2514523.6680152.1067597.9949132-1.1941189 2.7638502-3.9043728 4.5648071-6.915 4.595z" fill="#e57e25"/><path id="Shape" d="m21 33h-2c-.5522847 0-1-.4477153-1-1s.4477153-1 1-1h2c.5522847 0 1 .4477153 1 1s-.4477153 1-1 1z" fill="#fb7b76"/><circle id="Oval" cx="40" cy="25" fill="#35495e" r="4"/><circle id="Oval" cx="40" cy="24" fill="#3f5c6c" r="3"/><path id="Shape" d="m41 33h-2c-.5522847 0-1-.4477153-1-1s.4477153-1 1-1h2c.5522847 0 1 .4477153 1 1s-.4477153 1-1 1z" fill="#fb7b76"/><g fill="#f29c1f"><path id="Shape" d="m40 52c-.4043959-.0000863-.7689341-.2437275-.923678-.6173454-.1547439-.373618-.0692299-.8036603.216678-1.0896546l5-5c.3923789-.3789722 1.0160848-.3735524 1.4018186.0121814s.3911536 1.0094397.0121814 1.4018186l-5 5c-.1874927.1875494-.4418052.2929434-.707.293z"/><path id="Shape" d="m45 54c-.4043959-.0000863-.7689341-.2437275-.923678-.6173454-.1547439-.373618-.0692299-.8036603.216678-1.0896546l2-2c.3923789-.3789722 1.0160848-.3735524 1.4018186.0121814s.3911536 1.0094397.0121814 1.4018186l-2 2c-.1874927.1875494-.4418052.2929434-.707.293z"/><path id="Shape" d="m20 52c-.2651948-.0000566-.5195073-.1054506-.707-.293l-5-5c-.3789722-.3923789-.3735524-1.0160848.0121814-1.4018186s1.0094397-.3911536 1.4018186-.0121814l5 5c.2859079.2859943.3714219.7160366.216678 1.0896546-.1547439.3736179-.5192821.6172591-.923678.6173454z"/><path id="Shape" d="m15 54c-.2651948-.0000566-.5195073-.1054506-.707-.293l-2-2c-.3789722-.3923789-.3735524-1.0160848.0121814-1.4018186s1.0094397-.3911536 1.4018186-.0121814l2 2c.2859079.2859943.3714219.7160366.216678 1.0896546-.1547439.3736179-.5192821.6172591-.923678.6173454z"/><path id="Shape" d="m31 8h-2c-.5522847 0-1-.44771525-1-1s.4477153-1 1-1h2c.5522847 0 1 .44771525 1 1s-.4477153 1-1 1z"/><path id="Shape" d="m33 12h-6c-.5522847 0-1-.4477153-1-1s.4477153-1 1-1h6c.5522847 0 1 .4477153 1 1s-.4477153 1-1 1z"/><path id="Shape" d="m7 27c-.32144358.0000774-.62332833-.1543712-.8113424-.4150947-.18801406-.2607234-.23923378-.5959327-.1376576-.9009053l1-3c.11289592-.3394023.39828503-.5927937.74866403-.6647242.35037899-.0719304.71251695.0485281.95000001.316.23748307.2674719.3142319.6413219.20133596.9807242l-1 3c-.13630375.4092423-.51965668.6849662-.951.684z"/><path id="Shape" d="m10 31c-.09305621.0001628-.18565843-.0129699-.275-.039-.53058692-.152078-.83762485-.7052834-.686-1.236l2-7c.1639459-.5154609.7080459-.8071275 1.2280777-.658315.5200317.1488124.8274741.6841565.6939223 1.208315l-2 7c-.1227072.4290043-.5147918.7248018-.961.725z"/><path id="Shape" d="m53 27c-.4306074.0001037-.8129281-.2754572-.949-.684l-1-3c-.174522-.5246705.1093295-1.091478.634-1.266s1.091478.1093295 1.266.634l1 3c.1016886.3053075.0502399.6408961-.1382416.9017179-.1884814.2608218-.4909623.4150035-.8127584.4142821z"/><path id="Shape" d="m50 31c-.4462082-.0001982-.8382928-.2959957-.961-.725l-2-7c-.1103983-.3471024-.0233391-.7267789.2272589-.9911055.250598-.2643265.6250961-.371493.977588-.2797468s.6272216.3678931.7171531.7208523l2 7c.1516249.5307166-.1554131 1.083922-.686 1.236-.0893416.0260301-.1819438.0391628-.275.039z"/></g><circle id="Oval" cx="19" cy="23" fill="#ecf0f1" r="1"/><circle id="Oval" cx="39" cy="23" fill="#ecf0f1" r="1"/></g></g></svg>